<svg xmlns="http://www.w3.org/2000/svg" viewBox="0 0 1500 2350" font-family="'Inter', 'SF Pro Display', -apple-system, system-ui, sans-serif">
  <defs>
    <marker id="arrow" viewBox="0 0 10 10" refX="9" refY="5" markerWidth="7" markerHeight="7" orient="auto-start-auto">
      <path d="M 0 0 L 10 5 L 0 10 z" fill="#64748b"/>
    </marker>
    <marker id="arrow-blue" viewBox="0 0 10 10" refX="9" refY="5" markerWidth="7" markerHeight="7" orient="auto-start-auto">
      <path d="M 0 0 L 10 5 L 0 10 z" fill="#3b82f6"/>
    </marker>
    <marker id="arrow-amber" viewBox="0 0 10 10" refX="9" refY="5" markerWidth="7" markerHeight="7" orient="auto-start-auto">
      <path d="M 0 0 L 10 5 L 0 10 z" fill="#f59e0b"/>
    </marker>
    <marker id="arrow-red" viewBox="0 0 10 10" refX="9" refY="5" markerWidth="7" markerHeight="7" orient="auto-start-auto">
      <path d="M 0 0 L 10 5 L 0 10 z" fill="#ef4444"/>
    </marker>
    <marker id="arrow-green" viewBox="0 0 10 10" refX="9" refY="5" markerWidth="7" markerHeight="7" orient="auto-start-auto">
      <path d="M 0 0 L 10 5 L 0 10 z" fill="#10b981"/>
    </marker>
    <marker id="arrow-purple" viewBox="0 0 10 10" refX="9" refY="5" markerWidth="7" markerHeight="7" orient="auto-start-auto">
      <path d="M 0 0 L 10 5 L 0 10 z" fill="#8b5cf6"/>
    </marker>
    <linearGradient id="headerGrad" x1="0" y1="0" x2="1" y2="0">
      <stop offset="0%" stop-color="#0f172a"/>
      <stop offset="100%" stop-color="#1e293b"/>
    </linearGradient>
    <linearGradient id="pipelineGrad" x1="0" y1="0" x2="0" y2="1">
      <stop offset="0%" stop-color="#f0f9ff"/>
      <stop offset="100%" stop-color="#e0f2fe"/>
    </linearGradient>
    <filter id="shadow" x="-2%" y="-2%" width="104%" height="108%">
      <feDropShadow dx="0" dy="2" stdDeviation="3" flood-color="#0f172a" flood-opacity="0.08"/>
    </filter>
    <filter id="shadow-lg" x="-3%" y="-3%" width="106%" height="112%">
      <feDropShadow dx="0" dy="4" stdDeviation="6" flood-color="#0f172a" flood-opacity="0.12"/>
    </filter>
  </defs>

  <!-- Background -->
  <rect width="1500" height="2350" fill="#f8fafc"/>

  <!-- ═══════════════════════════════════════════════ -->
  <!-- TITLE BAR                                       -->
  <!-- ═══════════════════════════════════════════════ -->
  <rect width="1500" height="58" fill="url(#headerGrad)" rx="0"/>
  <text x="40" y="37" fill="#f8fafc" font-size="22" font-weight="700" letter-spacing="0.5">FinVet</text>
  <text x="120" y="37" fill="#94a3b8" font-size="16" font-weight="400">Financial Claim Verification — System Architecture</text>
  <text x="1350" y="37" fill="#64748b" font-size="13" font-weight="500">v2.0.9</text>

  <!-- ═══════════════════════════════════════════════ -->
  <!-- PRESENTATION LAYER                              -->
  <!-- ═══════════════════════════════════════════════ -->
  <text x="40" y="92" fill="#475569" font-size="11" font-weight="600" letter-spacing="1.5" text-transform="uppercase">PRESENTATION LAYER</text>

  <!-- Browser -->
  <rect x="40" y="105" width="200" height="55" rx="10" fill="#fff" stroke="#e2e8f0" stroke-width="1.5" filter="url(#shadow)"/>
  <text x="100" y="128" fill="#1e293b" font-size="13" font-weight="600" text-anchor="middle">User / Browser</text>
  <text x="100" y="148" fill="#94a3b8" font-size="11" text-anchor="middle">Financial claims</text>

  <!-- Arrow Browser → UI -->
  <line x1="240" y1="132" x2="320" y2="132" stroke="#64748b" stroke-width="1.5" marker-end="url(#arrow)"/>

  <!-- Streamlit UI -->
  <rect x="330" y="105" width="340" height="55" rx="10" fill="#fff" stroke="#3b82f6" stroke-width="2" filter="url(#shadow)"/>
  <circle cx="350" cy="120" r="6" fill="#3b82f6"/>
  <text x="500" y="128" fill="#1e293b" font-size="13" font-weight="600" text-anchor="middle">Streamlit UI</text>
  <text x="500" y="148" fill="#64748b" font-size="11" text-anchor="middle">Verify · Reviews · HITL · Memory</text>
  <text x="660" y="120" fill="#3b82f6" font-size="10" font-weight="600">:8501</text>

  <!-- Arrow UI → API -->
  <line x1="670" y1="132" x2="760" y2="132" stroke="#64748b" stroke-width="1.5" marker-end="url(#arrow)"/>
  <text x="715" y="125" fill="#94a3b8" font-size="9" text-anchor="middle">REST</text>

  <!-- FastAPI -->
  <rect x="770" y="105" width="340" height="55" rx="10" fill="#fff" stroke="#10b981" stroke-width="2" filter="url(#shadow)"/>
  <circle cx="790" cy="120" r="6" fill="#10b981"/>
  <text x="940" y="128" fill="#1e293b" font-size="13" font-weight="600" text-anchor="middle">FastAPI</text>
  <text x="940" y="148" fill="#64748b" font-size="11" text-anchor="middle">/verify · /review · /memory · /audit</text>
  <text x="1100" y="120" fill="#10b981" font-size="10" font-weight="600">:8000</text>

  <!-- API Endpoints detail -->
  <rect x="1140" y="100" width="320" height="65" rx="8" fill="#f0fdf4" stroke="#bbf7d0" stroke-width="1"/>
  <text x="1155" y="118" fill="#166534" font-size="10" font-weight="600">API ENDPOINTS</text>
  <text x="1155" y="133" fill="#15803d" font-size="9">POST /verify · GET/POST /review/{id}</text>
  <text x="1155" y="146" fill="#15803d" font-size="9">POST /memory-check · POST /memory-accept</text>
  <text x="1155" y="159" fill="#15803d" font-size="9">GET /audit/{id} · GET /health · GET /stats</text>

  <!-- Arrow API → Pipeline -->
  <line x1="940" y1="160" x2="940" y2="188" stroke="#64748b" stroke-width="1.5" marker-end="url(#arrow)"/>

  <!-- ═══════════════════════════════════════════════ -->
  <!-- LANGGRAPH PIPELINE                              -->
  <!-- ═══════════════════════════════════════════════ -->
  <rect x="40" y="195" width="1420" height="750" rx="16" fill="url(#pipelineGrad)" stroke="#bae6fd" stroke-width="1.5" filter="url(#shadow-lg)"/>
  <text x="65" y="222" fill="#0369a1" font-size="12" font-weight="700" letter-spacing="1.5">LANGGRAPH VERIFICATION PIPELINE</text>
  <text x="400" y="222" fill="#7dd3fc" font-size="10">VerificationState (TypedDict) flows through all nodes</text>

  <!-- Node 1: Input Guardrails -->
  <rect x="700" y="240" width="280" height="48" rx="8" fill="#fef2f2" stroke="#fca5a5" stroke-width="1.5" filter="url(#shadow)"/>
  <text x="750" y="260" fill="#991b1b" font-size="10" font-weight="700">1</text>
  <text x="840" y="260" fill="#991b1b" font-size="12" font-weight="600" text-anchor="middle">Input Guardrails</text>
  <text x="840" y="278" fill="#dc2626" font-size="10" text-anchor="middle">Normalize · Guard · Reject unsafe</text>

  <!-- Guard detail box (left of node 1) -->
  <rect x="80" y="235" width="280" height="58" rx="8" fill="#fff5f5" stroke="#fecaca" stroke-width="1" stroke-dasharray="4"/>
  <text x="95" y="255" fill="#991b1b" font-size="10" font-weight="600">Guard Chain (short-circuit)</text>
  <text x="95" y="270" fill="#b91c1c" font-size="9">1. RegexGuard — SQL/XSS/PII/length</text>
  <text x="95" y="283" fill="#b91c1c" font-size="9">2. LlamaGuard3 — S1-S13 semantic safety</text>
  <line x1="360" y1="264" x2="700" y2="264" stroke="#fca5a5" stroke-width="1" stroke-dasharray="3"/>

  <!-- Arrow 1→2 -->
  <line x1="840" y1="288" x2="840" y2="310" stroke="#64748b" stroke-width="1.5" marker-end="url(#arrow)"/>

  <!-- Node 2: Claim Parser -->
  <rect x="700" y="318" width="280" height="48" rx="8" fill="#eff6ff" stroke="#93c5fd" stroke-width="1.5" filter="url(#shadow)"/>
  <text x="750" y="338" fill="#1e40af" font-size="10" font-weight="700">2</text>
  <text x="840" y="338" fill="#1e40af" font-size="12" font-weight="600" text-anchor="middle">Claim Parser</text>
  <text x="840" y="356" fill="#2563eb" font-size="10" text-anchor="middle">type · ticker · value · period · comparison</text>

  <!-- Parser detail (right) -->
  <rect x="1020" y="318" width="210" height="48" rx="8" fill="#eff6ff" stroke="#bfdbfe" stroke-width="1" stroke-dasharray="4"/>
  <text x="1035" y="338" fill="#1e40af" font-size="10" font-weight="600">DeepSeek LLM</text>
  <text x="1035" y="353" fill="#3b82f6" font-size="9">JSON mode (not json_schema)</text>
  <line x1="980" y1="342" x2="1020" y2="342" stroke="#93c5fd" stroke-width="1" stroke-dasharray="3"/>

  <!-- Arrow 2 → Routing -->
  <line x1="840" y1="366" x2="840" y2="390" stroke="#64748b" stroke-width="1.5" marker-end="url(#arrow)"/>

  <!-- Routing diamond -->
  <polygon points="840,393 880,413 840,433 800,413" fill="#fef3c7" stroke="#fbbf24" stroke-width="1.5"/>
  <text x="840" y="417" fill="#92400e" font-size="9" font-weight="600" text-anchor="middle">Route</text>

  <!-- Routing labels and branches -->
  <!-- Branch: SEC (left) -->
  <line x1="800" y1="413" x2="280" y2="413" stroke="#f59e0b" stroke-width="1.5"/>
  <line x1="280" y1="413" x2="280" y2="455" stroke="#f59e0b" stroke-width="1.5" marker-end="url(#arrow-amber)"/>
  <text x="520" y="407" fill="#92400e" font-size="9" font-weight="500">claim_type = "sec"</text>

  <!-- Branch: Market (center-left) -->
  <line x1="820" y1="433" x2="620" y2="475" stroke="#f59e0b" stroke-width="1.5" marker-end="url(#arrow-amber)"/>
  <text x="680" y="450" fill="#92400e" font-size="9" font-weight="500">"market"</text>

  <!-- Branch: News (center-right) -->
  <line x1="860" y1="433" x2="1000" y2="475" stroke="#f59e0b" stroke-width="1.5" marker-end="url(#arrow-amber)"/>
  <text x="950" y="450" fill="#92400e" font-size="9" font-weight="500">"news"</text>

  <!-- Branch: Reject (right) -->
  <line x1="880" y1="413" x2="1300" y2="413" stroke="#ef4444" stroke-width="1.5"/>
  <line x1="1300" y1="413" x2="1300" y2="455" stroke="#ef4444" stroke-width="1.5" marker-end="url(#arrow-red)"/>
  <text x="1100" y="407" fill="#991b1b" font-size="9" font-weight="500">"reject"</text>

  <!-- Node 3: Period Resolver (SEC only) -->
  <rect x="160" y="462" width="240" height="48" rx="8" fill="#fefce8" stroke="#fde047" stroke-width="1.5" filter="url(#shadow)"/>
  <text x="200" y="482" fill="#854d0e" font-size="10" font-weight="700">3</text>
  <text x="280" y="482" fill="#854d0e" font-size="12" font-weight="600" text-anchor="middle">Period Resolver</text>
  <text x="280" y="500" fill="#a16207" font-size="10" text-anchor="middle">Q4 FY2024 → 2024-10-01…12-31</text>
  <text x="280" y="455" fill="#92400e" font-size="8" font-weight="500" text-anchor="middle">SEC only</text>

  <!-- Arrow Period → SEC Agent -->
  <line x1="280" y1="510" x2="280" y2="538" stroke="#64748b" stroke-width="1.5" marker-end="url(#arrow)"/>

  <!-- Node 4a: SEC Agent -->
  <rect x="140" y="545" width="280" height="52" rx="8" fill="#ecfdf5" stroke="#6ee7b7" stroke-width="1.5" filter="url(#shadow)"/>
  <text x="178" y="567" fill="#065f46" font-size="10" font-weight="700">4a</text>
  <text x="280" y="567" fill="#065f46" font-size="12" font-weight="600" text-anchor="middle">SEC Agent</text>
  <text x="280" y="585" fill="#047857" font-size="10" text-anchor="middle">ReAct loop · XBRL · RAG · A2A</text>

  <!-- Node 4b: Market Agent -->
  <rect x="480" y="483" width="280" height="52" rx="8" fill="#ecfdf5" stroke="#6ee7b7" stroke-width="1.5" filter="url(#shadow)"/>
  <text x="518" y="505" fill="#065f46" font-size="10" font-weight="700">4b</text>
  <text x="620" y="505" fill="#065f46" font-size="12" font-weight="600" text-anchor="middle">Market Agent</text>
  <text x="620" y="523" fill="#047857" font-size="10" text-anchor="middle">ReAct loop · Finnhub</text>

  <!-- Node 4c: News Agent -->
  <rect x="860" y="483" width="280" height="52" rx="8" fill="#ecfdf5" stroke="#6ee7b7" stroke-width="1.5" filter="url(#shadow)"/>
  <text x="898" y="505" fill="#065f46" font-size="10" font-weight="700">4c</text>
  <text x="1000" y="505" fill="#065f46" font-size="12" font-weight="600" text-anchor="middle">News Agent</text>
  <text x="1000" y="523" fill="#047857" font-size="10" text-anchor="middle">ReAct loop · Tavily search</text>

  <!-- Reject Handler -->
  <rect x="1200" y="462" width="200" height="48" rx="8" fill="#fef2f2" stroke="#fca5a5" stroke-width="1.5" filter="url(#shadow)"/>
  <text x="1300" y="483" fill="#991b1b" font-size="12" font-weight="600" text-anchor="middle">Reject Handler</text>
  <text x="1300" y="500" fill="#dc2626" font-size="10" text-anchor="middle">non_financial · question</text>

  <!-- Converge arrows to consensus -->
  <line x1="280" y1="597" x2="280" y2="630" stroke="#64748b" stroke-width="1.2"/>
  <line x1="280" y1="630" x2="750" y2="630" stroke="#64748b" stroke-width="1.2"/>
  <line x1="620" y1="535" x2="620" y2="630" stroke="#64748b" stroke-width="1.2"/>
  <line x1="620" y1="630" x2="750" y2="630" stroke="#64748b" stroke-width="1.2"/>
  <line x1="1000" y1="535" x2="1000" y2="630" stroke="#64748b" stroke-width="1.2"/>
  <line x1="1000" y1="630" x2="850" y2="630" stroke="#64748b" stroke-width="1.2"/>
  <line x1="800" y1="630" x2="800" y2="648" stroke="#64748b" stroke-width="1.5" marker-end="url(#arrow)"/>

  <!-- Reject → Response (skip consensus) -->
  <line x1="1300" y1="510" x2="1300" y2="870" stroke="#ef4444" stroke-width="1" stroke-dasharray="4"/>
  <line x1="1300" y1="870" x2="940" y2="870" stroke="#ef4444" stroke-width="1" stroke-dasharray="4" marker-end="url(#arrow-red)"/>

  <!-- Node 5: Consensus -->
  <rect x="660" y="655" width="280" height="48" rx="8" fill="#f5f3ff" stroke="#c4b5fd" stroke-width="1.5" filter="url(#shadow)"/>
  <text x="710" y="675" fill="#5b21b6" font-size="10" font-weight="700">5</text>
  <text x="800" y="675" fill="#5b21b6" font-size="12" font-weight="600" text-anchor="middle">Consensus</text>
  <text x="800" y="693" fill="#7c3aed" font-size="10" text-anchor="middle">Confidence adjustments · Clamping</text>

  <!-- Consensus detail (left) -->
  <rect x="80" y="648" width="280" height="62" rx="8" fill="#faf5ff" stroke="#e9d5ff" stroke-width="1" stroke-dasharray="4"/>
  <text x="95" y="665" fill="#5b21b6" font-size="10" font-weight="600">Confidence Adjustments</text>
  <text x="95" y="680" fill="#7c3aed" font-size="9">+0.05 close match (diff &lt; 2%)</text>
  <text x="95" y="693" fill="#7c3aed" font-size="9">−penalty large diff (&gt; 20%)</text>
  <text x="95" y="706" fill="#7c3aed" font-size="9">+0.05 thorough (≥ 3 tools) · max 0.95</text>
  <line x1="360" y1="679" x2="660" y2="679" stroke="#c4b5fd" stroke-width="1" stroke-dasharray="3"/>

  <!-- Arrow 5→6 -->
  <line x1="800" y1="703" x2="800" y2="728" stroke="#64748b" stroke-width="1.5" marker-end="url(#arrow)"/>

  <!-- Node 6: Output Guardrails -->
  <rect x="660" y="735" width="280" height="48" rx="8" fill="#fef2f2" stroke="#fca5a5" stroke-width="1.5" filter="url(#shadow)"/>
  <text x="710" y="755" fill="#991b1b" font-size="10" font-weight="700">6</text>
  <text x="800" y="755" fill="#991b1b" font-size="12" font-weight="600" text-anchor="middle">Output Guardrails</text>
  <text x="800" y="773" fill="#dc2626" font-size="10" text-anchor="middle">Confidence threshold · Output safety</text>

  <!-- Output guard detail (right) -->
  <rect x="1020" y="730" width="240" height="58" rx="8" fill="#fff5f5" stroke="#fecaca" stroke-width="1" stroke-dasharray="4"/>
  <text x="1035" y="748" fill="#991b1b" font-size="10" font-weight="600">HITL Triggers</text>
  <text x="1035" y="763" fill="#b91c1c" font-size="9">• confidence &lt; 0.70</text>
  <text x="1035" y="776" fill="#b91c1c" font-size="9">• Financial advice detected (S6)</text>
  <line x1="940" y1="759" x2="1020" y2="759" stroke="#fca5a5" stroke-width="1" stroke-dasharray="3"/>

  <!-- Arrow 6 → Routing -->
  <line x1="800" y1="783" x2="800" y2="806" stroke="#64748b" stroke-width="1.5" marker-end="url(#arrow)"/>

  <!-- Second routing diamond -->
  <polygon points="800,810 840,830 800,850 760,830" fill="#fef3c7" stroke="#fbbf24" stroke-width="1.5"/>
  <text x="800" y="834" fill="#92400e" font-size="8" font-weight="600" text-anchor="middle">HITL?</text>

  <!-- Branch: No HITL → Response -->
  <line x1="840" y1="830" x2="870" y2="830" stroke="#10b981" stroke-width="1.5"/>
  <line x1="870" y1="830" x2="870" y2="862" stroke="#10b981" stroke-width="1.5" marker-end="url(#arrow-green)"/>
  <text x="895" y="848" fill="#065f46" font-size="9" font-weight="500">no</text>

  <!-- Branch: HITL → Checkpoint -->
  <line x1="760" y1="830" x2="500" y2="830" stroke="#f59e0b" stroke-width="1.5"/>
  <line x1="500" y1="830" x2="500" y2="862" stroke="#f59e0b" stroke-width="1.5" marker-end="url(#arrow-amber)"/>
  <text x="630" y="823" fill="#92400e" font-size="9" font-weight="500">hitl_required = true</text>

  <!-- Node 7: HITL Checkpoint -->
  <rect x="380" y="869" width="240" height="48" rx="8" fill="#fffbeb" stroke="#fbbf24" stroke-width="1.5" filter="url(#shadow)"/>
  <text x="420" y="889" fill="#92400e" font-size="10" font-weight="700">7</text>
  <text x="500" y="889" fill="#92400e" font-size="12" font-weight="600" text-anchor="middle">HITL Checkpoint</text>
  <text x="500" y="907" fill="#b45309" font-size="10" text-anchor="middle">interrupt_before · MemorySaver</text>

  <!-- HITL detail (left) -->
  <rect x="80" y="855" width="260" height="75" rx="8" fill="#fffbeb" stroke="#fde68a" stroke-width="1" stroke-dasharray="4"/>
  <text x="95" y="873" fill="#92400e" font-size="10" font-weight="600">Human Review Flow</text>
  <text x="95" y="888" fill="#b45309" font-size="9">1. Graph pauses at checkpoint</text>
  <text x="95" y="901" fill="#b45309" font-size="9">2. Reviewer sees preliminary verdict</text>
  <text x="95" y="914" fill="#b45309" font-size="9">3. Decision: approve / override / reject</text>
  <text x="95" y="927" fill="#b45309" font-size="9">4. graph.update_state() + invoke(None)</text>
  <line x1="340" y1="893" x2="380" y2="893" stroke="#fbbf24" stroke-width="1" stroke-dasharray="3"/>

  <!-- Arrow HITL → Apply -->
  <line x1="500" y1="917" x2="500" y2="925" stroke="#64748b" stroke-width="1.5"/>

  <!-- Node 8: Apply HITL (inline, smaller) -->
  <rect x="405" y="925" width="190" height="30" rx="6" fill="#fef9c3" stroke="#facc15" stroke-width="1"/>
  <text x="430" y="944" fill="#854d0e" font-size="9" font-weight="700">8</text>
  <text x="500" y="944" fill="#854d0e" font-size="10" font-weight="600" text-anchor="middle">Apply Decision</text>

  <!-- Arrow Apply → Response -->
  <line x1="595" y1="940" x2="780" y2="885" stroke="#64748b" stroke-width="1.5" marker-end="url(#arrow)"/>

  <!-- Node 9: Response Generator -->
  <rect x="770" y="869" width="280" height="48" rx="8" fill="#eff6ff" stroke="#3b82f6" stroke-width="2" filter="url(#shadow)"/>
  <text x="820" y="889" fill="#1e40af" font-size="10" font-weight="700">9</text>
  <text x="910" y="889" fill="#1e40af" font-size="12" font-weight="600" text-anchor="middle">Response Generator</text>
  <text x="910" y="907" fill="#2563eb" font-size="10" text-anchor="middle">verdict · summary · sources · metadata</text>

  <!-- ═══════════════════════════════════════════════ -->
  <!-- AGENT DETAIL CARDS                              -->
  <!-- ═══════════════════════════════════════════════ -->
  <text x="40" y="975" fill="#475569" font-size="11" font-weight="600" letter-spacing="1.5">DOMAIN AGENTS — ReAct LOOP (reason → tool → observe → verdict)</text>

  <!-- SEC Agent Card -->
  <rect x="40" y="992" width="440" height="310" rx="12" fill="#fff" stroke="#6ee7b7" stroke-width="1.5" filter="url(#shadow-lg)"/>
  <rect x="40" y="992" width="440" height="38" rx="12" fill="#065f46"/>
  <rect x="40" y="1012" width="440" height="18" fill="#065f46"/>
  <text x="60" y="1016" fill="#fff" font-size="14" font-weight="700">SEC Agent</text>
  <text x="350" y="1016" fill="#a7f3d0" font-size="10">SEC EDGAR · XBRL</text>

  <!-- SEC tools -->
  <text x="60" y="1055" fill="#065f46" font-size="11" font-weight="600">Tools (7)</text>
  <text x="60" y="1075" fill="#374151" font-size="10">get_company_info</text>
  <text x="250" y="1075" fill="#6b7280" font-size="9">→ CIK, fiscal year end, SIC</text>
  <text x="60" y="1093" fill="#374151" font-size="10">get_recent_filings</text>
  <text x="250" y="1093" fill="#6b7280" font-size="9">→ 10-K, 10-Q accession numbers</text>
  <text x="60" y="1111" fill="#374151" font-size="10">get_income_statement</text>
  <text x="250" y="1111" fill="#6b7280" font-size="9">→ Revenue, NI, EPS, OpInc</text>
  <text x="60" y="1129" fill="#374151" font-size="10">get_balance_sheet</text>
  <text x="250" y="1129" fill="#6b7280" font-size="9">→ Assets, Liabilities, Equity</text>
  <text x="60" y="1147" fill="#374151" font-size="10">get_cash_flow</text>
  <text x="250" y="1147" fill="#6b7280" font-size="9">→ OpCF, FCF, CapEx, Dividends</text>
  <text x="60" y="1165" fill="#7c3aed" font-size="10" font-weight="500">search_filing_text</text>
  <text x="250" y="1165" fill="#7c3aed" font-size="9">→ RAG hybrid search (chunks)</text>
  <rect x="54" y="1154" width="185" height="16" rx="3" fill="none" stroke="#c4b5fd" stroke-width="0.8"/>
  <text x="60" y="1183" fill="#d97706" font-size="10" font-weight="500">corroborate_with_news</text>
  <text x="250" y="1183" fill="#d97706" font-size="9">→ A2A cross-verify via News</text>
  <rect x="54" y="1172" width="185" height="16" rx="3" fill="none" stroke="#fbbf24" stroke-width="0.8"/>

  <!-- SEC tolerances -->
  <rect x="60" y="1200" width="400" height="40" rx="6" fill="#f0fdf4" stroke="#bbf7d0" stroke-width="1"/>
  <text x="75" y="1215" fill="#166534" font-size="9" font-weight="600">TOLERANCES</text>
  <text x="75" y="1230" fill="#15803d" font-size="9">≥ $1B → 1%  ·  &lt; $1B → 2%  ·  Python override: |claimed−retrieved| / max * 100</text>

  <!-- Verdict override note -->
  <rect x="60" y="1250" width="400" height="40" rx="6" fill="#fef3c7" stroke="#fde68a" stroke-width="1"/>
  <text x="75" y="1265" fill="#854d0e" font-size="9" font-weight="600">VERDICT OVERRIDE</text>
  <text x="75" y="1280" fill="#92400e" font-size="9">LLM estimates → Python deterministically overrides (prevents LLM math errors)</text>

  <!-- Market Agent Card -->
  <rect x="500" y="992" width="380" height="310" rx="12" fill="#fff" stroke="#6ee7b7" stroke-width="1.5" filter="url(#shadow-lg)"/>
  <rect x="500" y="992" width="380" height="38" rx="12" fill="#065f46"/>
  <rect x="500" y="1012" width="380" height="18" fill="#065f46"/>
  <text x="520" y="1016" fill="#fff" font-size="14" font-weight="700">Market Agent</text>
  <text x="750" y="1016" fill="#a7f3d0" font-size="10">Finnhub</text>

  <!-- Market tools -->
  <text x="520" y="1055" fill="#065f46" font-size="11" font-weight="600">Tools (4)</text>
  <text x="520" y="1075" fill="#374151" font-size="10">get_stock_quote</text>
  <text x="690" y="1075" fill="#6b7280" font-size="9">→ Price, OHLC, volume</text>
  <text x="520" y="1093" fill="#374151" font-size="10">get_daily_prices</text>
  <text x="690" y="1093" fill="#6b7280" font-size="9">→ Historical OHLCV</text>
  <text x="520" y="1111" fill="#374151" font-size="10">get_company_overview</text>
  <text x="690" y="1111" fill="#6b7280" font-size="9">→ Mkt cap, P/E, 52w</text>
  <text x="520" y="1129" fill="#374151" font-size="10">get_earnings</text>
  <text x="690" y="1129" fill="#6b7280" font-size="9">→ EPS, estimate, surprise</text>

  <!-- Market tolerances -->
  <rect x="520" y="1160" width="340" height="40" rx="6" fill="#f0fdf4" stroke="#bbf7d0" stroke-width="1"/>
  <text x="535" y="1175" fill="#166534" font-size="9" font-weight="600">TOLERANCES</text>
  <text x="535" y="1190" fill="#15803d" font-size="9">Current: 5%  ·  Historical: 2%  ·  Market cap: 10%</text>

  <!-- Market fallback note -->
  <rect x="520" y="1210" width="340" height="30" rx="6" fill="#eff6ff" stroke="#bfdbfe" stroke-width="1"/>
  <text x="535" y="1230" fill="#1e40af" font-size="9">Historical candles need a paid Finnhub tier (403 on free)</text>

  <!-- News Agent Card -->
  <rect x="900" y="992" width="380" height="310" rx="12" fill="#fff" stroke="#6ee7b7" stroke-width="1.5" filter="url(#shadow-lg)"/>
  <rect x="900" y="992" width="380" height="38" rx="12" fill="#065f46"/>
  <rect x="900" y="1012" width="380" height="18" fill="#065f46"/>
  <text x="920" y="1016" fill="#fff" font-size="14" font-weight="700">News Agent</text>
  <text x="1150" y="1016" fill="#a7f3d0" font-size="10">Tavily Search</text>

  <!-- News tools -->
  <text x="920" y="1055" fill="#065f46" font-size="11" font-weight="600">Tools (2)</text>
  <text x="920" y="1075" fill="#374151" font-size="10">search_financial_news</text>
  <text x="920" y="1093" fill="#6b7280" font-size="9">→ Reuters, Bloomberg, WSJ, FT, AP articles</text>
  <text x="920" y="1115" fill="#374151" font-size="10">verify_news_source</text>
  <text x="920" y="1133" fill="#6b7280" font-size="9">→ Credibility score, tier, primary source flag</text>

  <!-- News source tiers -->
  <rect x="920" y="1155" width="340" height="55" rx="6" fill="#f0fdf4" stroke="#bbf7d0" stroke-width="1"/>
  <text x="935" y="1170" fill="#166534" font-size="9" font-weight="600">SOURCE TIERS</text>
  <text x="935" y="1185" fill="#15803d" font-size="9">T1 (0.95): Reuters, Bloomberg, WSJ, FT, AP</text>
  <text x="935" y="1198" fill="#15803d" font-size="9">T2 (0.80): CNBC, MarketWatch, Yahoo Finance</text>

  <!-- News tolerance -->
  <rect x="920" y="1220" width="340" height="30" rx="6" fill="#eff6ff" stroke="#bfdbfe" stroke-width="1"/>
  <text x="935" y="1240" fill="#1e40af" font-size="9">Tolerance: 10%  ·  Multiple T1 sources → high confidence</text>

  <!-- ═══════════════════════════════════════════════ -->
  <!-- INFRASTRUCTURE                                  -->
  <!-- ═══════════════════════════════════════════════ -->
  <text x="40" y="1340" fill="#475569" font-size="11" font-weight="600" letter-spacing="1.5">INFRASTRUCTURE — DOCKER COMPOSE + EXTERNAL SERVICES</text>

  <!-- Docker container outline -->
  <rect x="40" y="1355" width="700" height="240" rx="12" fill="#fff" stroke="#64748b" stroke-width="1.5" filter="url(#shadow-lg)"/>
  <rect x="40" y="1355" width="700" height="32" rx="12" fill="#334155"/>
  <rect x="40" y="1370" width="700" height="17" fill="#334155"/>
  <text x="60" y="1377" fill="#e2e8f0" font-size="12" font-weight="700">Docker Compose</text>
  <text x="280" y="1377" fill="#94a3b8" font-size="10">docker-compose.yml</text>

  <!-- PostgreSQL -->
  <rect x="60" y="1400" width="310" height="80" rx="8" fill="#eef2ff" stroke="#818cf8" stroke-width="1.5"/>
  <text x="80" y="1422" fill="#3730a3" font-size="12" font-weight="600">PostgreSQL + pgvector</text>
  <text x="340" y="1422" fill="#6366f1" font-size="10" font-weight="500">:5432</text>
  <text x="80" y="1440" fill="#4f46e5" font-size="9">audit_events · audit_executions</text>
  <text x="80" y="1455" fill="#4f46e5" font-size="9">filing_chunks (pgvector HNSW + GIN tsvector)</text>
  <text x="80" y="1470" fill="#4f46e5" font-size="9">claim_memory (JSONB embeddings)</text>

  <!-- SEC EDGAR MCP -->
  <rect x="60" y="1495" width="150" height="80" rx="8" fill="#f0fdfa" stroke="#5eead4" stroke-width="1.5"/>
  <text x="75" y="1517" fill="#134e4a" font-size="11" font-weight="600">SEC EDGAR</text>
  <text x="75" y="1532" fill="#134e4a" font-size="11" font-weight="600">MCP Server</text>
  <text x="180" y="1517" fill="#14b8a6" font-size="9" font-weight="500">:9870</text>
  <text x="75" y="1550" fill="#0d9488" font-size="8">JSON-RPC 2.0</text>
  <text x="75" y="1562" fill="#0d9488" font-size="8">streamable-http</text>

  <!-- Ollama (optional, profile: guards) -->
  <rect x="225" y="1495" width="150" height="80" rx="8" fill="#fef2f2" stroke="#fca5a5" stroke-width="1.5"/>
  <text x="240" y="1517" fill="#991b1b" font-size="11" font-weight="600">Ollama</text>
  <text x="345" y="1517" fill="#ef4444" font-size="9" font-weight="500">:11434</text>
  <text x="240" y="1535" fill="#b91c1c" font-size="10">Llama Guard 3</text>
  <text x="240" y="1550" fill="#dc2626" font-size="8">optional · fails open</text>
  <text x="240" y="1562" fill="#dc2626" font-size="8">safety (S1-S13)</text>

  <!-- Local Processes -->
  <rect x="555" y="1400" width="170" height="80" rx="8" fill="#f0fdf4" stroke="#86efac" stroke-width="1.5"/>
  <text x="570" y="1418" fill="#166534" font-size="10" font-weight="600">Local Processes</text>
  <text x="570" y="1435" fill="#15803d" font-size="9">FastAPI :8000</text>
  <text x="570" y="1450" fill="#15803d" font-size="9">Streamlit :8501</text>
  <text x="570" y="1465" fill="#15803d" font-size="9">start.sh orchestrator</text>

  <!-- External APIs box -->
  <rect x="780" y="1355" width="680" height="240" rx="12" fill="#fff" stroke="#64748b" stroke-width="1.5" filter="url(#shadow-lg)"/>
  <rect x="780" y="1355" width="680" height="32" rx="12" fill="#1e40af"/>
  <rect x="780" y="1370" width="680" height="17" fill="#1e40af"/>
  <text x="800" y="1377" fill="#e0f2fe" font-size="12" font-weight="700">External APIs</text>

  <!-- DeepSeek -->
  <rect x="800" y="1400" width="200" height="80" rx="8" fill="#eff6ff" stroke="#93c5fd" stroke-width="1.5"/>
  <text x="815" y="1422" fill="#1e3a8a" font-size="12" font-weight="600">DeepSeek</text>
  <text x="815" y="1440" fill="#2563eb" font-size="9" font-weight="500">deepseek-chat</text>
  <text x="815" y="1455" fill="#3b82f6" font-size="9">Claim parsing (JSON mode)</text>
  <text x="815" y="1468" fill="#3b82f6" font-size="9">Agent reasoning (ReAct)</text>

  <!-- OpenAI -->
  <rect x="1020" y="1400" width="200" height="80" rx="8" fill="#eff6ff" stroke="#93c5fd" stroke-width="1.5"/>
  <text x="1035" y="1422" fill="#1e3a8a" font-size="12" font-weight="600">OpenAI</text>
  <text x="1035" y="1440" fill="#2563eb" font-size="9" font-weight="500">text-embedding-3-small</text>
  <text x="1035" y="1455" fill="#3b82f6" font-size="9">RAG embeddings (1536-dim)</text>
  <text x="1035" y="1468" fill="#3b82f6" font-size="9">Memory embeddings</text>

  <!-- Tavily -->
  <rect x="1240" y="1400" width="200" height="80" rx="8" fill="#eff6ff" stroke="#93c5fd" stroke-width="1.5"/>
  <text x="1255" y="1422" fill="#1e3a8a" font-size="12" font-weight="600">Tavily</text>
  <text x="1255" y="1440" fill="#2563eb" font-size="9" font-weight="500">Search API</text>
  <text x="1255" y="1455" fill="#3b82f6" font-size="9">Financial news search</text>
  <text x="1255" y="1468" fill="#3b82f6" font-size="9">Credibility filtering</text>

  <!-- SEC EDGAR (external) -->
  <rect x="800" y="1495" width="200" height="80" rx="8" fill="#f0fdfa" stroke="#5eead4" stroke-width="1.5"/>
  <text x="815" y="1517" fill="#134e4a" font-size="12" font-weight="600">SEC EDGAR</text>
  <text x="815" y="1535" fill="#0d9488" font-size="9">XBRL concepts</text>
  <text x="815" y="1550" fill="#0d9488" font-size="9">Company filings</text>
  <text x="815" y="1563" fill="#0d9488" font-size="9">10-K, 10-Q, 8-K</text>

  <!-- Finnhub (external) -->
  <rect x="1020" y="1495" width="200" height="80" rx="8" fill="#f0fdfa" stroke="#5eead4" stroke-width="1.5"/>
  <text x="1035" y="1517" fill="#134e4a" font-size="12" font-weight="600">Finnhub API</text>
  <text x="1035" y="1535" fill="#0d9488" font-size="9">Stock quotes, prices</text>
  <text x="1035" y="1550" fill="#0d9488" font-size="9">Earnings, overview</text>
  <text x="1035" y="1563" fill="#0d9488" font-size="9">Historical: paid tier only</text>

  <!-- ═══════════════════════════════════════════════ -->
  <!-- CROSS-CUTTING CONCERNS                         -->
  <!-- ═══════════════════════════════════════════════ -->
  <text x="40" y="1630" fill="#475569" font-size="11" font-weight="600" letter-spacing="1.5">CROSS-CUTTING CONCERNS — RAG · MEMORY · AUDIT</text>

  <!-- RAG Card -->
  <rect x="40" y="1648" width="440" height="245" rx="12" fill="#fff" stroke="#c4b5fd" stroke-width="1.5" filter="url(#shadow-lg)"/>
  <rect x="40" y="1648" width="440" height="32" rx="12" fill="#5b21b6"/>
  <rect x="40" y="1663" width="440" height="17" fill="#5b21b6"/>
  <text x="60" y="1670" fill="#f5f3ff" font-size="12" font-weight="700">RAG — Hybrid Search</text>
  <text x="300" y="1670" fill="#ddd6fe" font-size="10">filing_chunks table</text>

  <!-- RAG flow diagram -->
  <text x="60" y="1710" fill="#5b21b6" font-size="10" font-weight="600">Query</text>
  <line x1="95" y1="1707" x2="130" y2="1707" stroke="#7c3aed" stroke-width="1.2" marker-end="url(#arrow-purple)"/>

  <!-- Vector branch -->
  <rect x="140" y="1695" width="140" height="28" rx="5" fill="#f5f3ff" stroke="#c4b5fd" stroke-width="1"/>
  <text x="210" y="1714" fill="#5b21b6" font-size="9" font-weight="500" text-anchor="middle">Vector (pgvector)</text>

  <!-- Keyword branch -->
  <rect x="140" y="1730" width="140" height="28" rx="5" fill="#f5f3ff" stroke="#c4b5fd" stroke-width="1"/>
  <text x="210" y="1749" fill="#5b21b6" font-size="9" font-weight="500" text-anchor="middle">Keyword (tsvector)</text>

  <!-- Converge -->
  <line x1="280" y1="1723" x2="310" y2="1740" stroke="#7c3aed" stroke-width="1"/>
  <line x1="280" y1="1744" x2="310" y2="1740" stroke="#7c3aed" stroke-width="1"/>

  <!-- RRF -->
  <rect x="315" y="1726" width="140" height="28" rx="5" fill="#ede9fe" stroke="#a78bfa" stroke-width="1.5"/>
  <text x="385" y="1745" fill="#4c1d95" font-size="9" font-weight="600" text-anchor="middle">RRF Fusion (k=60)</text>

  <line x1="385" y1="1754" x2="385" y2="1770" stroke="#7c3aed" stroke-width="1.2" marker-end="url(#arrow-purple)"/>
  <text x="385" y="1783" fill="#5b21b6" font-size="9" font-weight="500" text-anchor="middle">Top K chunks</text>

  <!-- RAG details -->
  <text x="60" y="1810" fill="#374151" font-size="9">Embedding: text-embedding-3-small (1536 dims)</text>
  <text x="60" y="1825" fill="#374151" font-size="9">Chunks: ~500 tokens, 100-token overlap</text>
  <text x="60" y="1840" fill="#374151" font-size="9">Sections: MD&amp;A, risk factors, footnotes, financials</text>
  <text x="60" y="1855" fill="#374151" font-size="9">Index: HNSW (vector) + GIN (tsvector)</text>
  <text x="60" y="1870" fill="#374151" font-size="9">Score: 1/(60+vec_rank) + 1/(60+kw_rank)</text>
  <text x="60" y="1885" fill="#7c3aed" font-size="9" font-weight="500">Tool: search_filing_text (SEC Agent only)</text>

  <!-- Memory Card -->
  <rect x="500" y="1648" width="340" height="245" rx="12" fill="#fff" stroke="#f9a8d4" stroke-width="1.5" filter="url(#shadow-lg)"/>
  <rect x="500" y="1648" width="340" height="32" rx="12" fill="#be185d"/>
  <rect x="500" y="1663" width="340" height="17" fill="#be185d"/>
  <text x="520" y="1670" fill="#fce7f3" font-size="12" font-weight="700">Claim Memory</text>
  <text x="720" y="1670" fill="#fbcfe8" font-size="10">Pre-Pipeline Cache</text>

  <!-- Memory flow -->
  <text x="520" y="1708" fill="#be185d" font-size="10" font-weight="600">User submits claim</text>
  <text x="520" y="1725" fill="#374151" font-size="9">↓ POST /memory-check</text>
  <text x="520" y="1742" fill="#374151" font-size="9">↓ Embed → cosine similarity vs. past</text>

  <!-- Three thresholds -->
  <rect x="520" y="1755" width="300" height="70" rx="6" fill="#fdf2f8" stroke="#fbcfe8" stroke-width="1"/>
  <text x="535" y="1773" fill="#9d174d" font-size="9" font-weight="600">Similarity Thresholds</text>
  <text x="535" y="1790" fill="#be185d" font-size="9">≥ 0.95  Cache hit → Use / Fresh / With Context</text>
  <text x="535" y="1805" fill="#be185d" font-size="9">≥ 0.75  Related → inject as agent context</text>
  <text x="535" y="1820" fill="#be185d" font-size="9">≥ 0.60  Similar → "People Also Verified"</text>

  <!-- Memory details -->
  <text x="520" y="1845" fill="#374151" font-size="9">Embedding: same OpenAI model as RAG</text>
  <text x="520" y="1860" fill="#374151" font-size="9">Similarity: NumPy cosine (client-side)</text>
  <text x="520" y="1875" fill="#374151" font-size="9">Storage: claim_memory table (JSONB)</text>
  <text x="520" y="1890" fill="#ec4899" font-size="9" font-weight="500">Skips PENDING/REJECTED/ERROR verdicts</text>

  <!-- Audit Card -->
  <rect x="860" y="1648" width="380" height="245" rx="12" fill="#fff" stroke="#94a3b8" stroke-width="1.5" filter="url(#shadow-lg)"/>
  <rect x="860" y="1648" width="380" height="32" rx="12" fill="#475569"/>
  <rect x="860" y="1663" width="380" height="17" fill="#475569"/>
  <text x="880" y="1670" fill="#f1f5f9" font-size="12" font-weight="700">Audit Trail</text>
  <text x="1100" y="1670" fill="#cbd5e1" font-size="10">Immutable · Compliance</text>

  <!-- Two tables -->
  <text x="880" y="1708" fill="#475569" font-size="10" font-weight="600">Two PostgreSQL Tables</text>

  <rect x="880" y="1718" width="340" height="55" rx="6" fill="#f8fafc" stroke="#e2e8f0" stroke-width="1"/>
  <text x="895" y="1735" fill="#334155" font-size="9" font-weight="600">audit_events</text>
  <text x="895" y="1750" fill="#64748b" font-size="8">event_id · request_id · event_type · timestamp</text>
  <text x="895" y="1763" fill="#64748b" font-size="8">data (JSONB) · parent_event_id (hierarchical)</text>

  <rect x="880" y="1780" width="340" height="55" rx="6" fill="#f8fafc" stroke="#e2e8f0" stroke-width="1"/>
  <text x="895" y="1797" fill="#334155" font-size="9" font-weight="600">audit_executions</text>
  <text x="895" y="1812" fill="#64748b" font-size="8">request_id · verdict · confidence · full_trace (JSONB)</text>
  <text x="895" y="1825" fill="#64748b" font-size="8">data_sources (JSONB) · execution_hash (SHA256)</text>

  <!-- Audit events list -->
  <text x="880" y="1855" fill="#475569" font-size="9" font-weight="600">Event Types</text>
  <text x="880" y="1870" fill="#64748b" font-size="8">input_received · claim_parsed · period_resolved</text>
  <text x="880" y="1883" fill="#64748b" font-size="8">agent_completed · hitl_approved/overridden/rejected</text>
  <text x="880" y="1896" fill="#64748b" font-size="8">memory_cache_accepted · memory_context_injected</text>
  <text x="880" y="1896" fill="#64748b" font-size="8">memory_cache_accepted · memory_context_injected</text>

  <!-- ═══════════════════════════════════════════════ -->
  <!-- A2A FLOW                                        -->
  <!-- ═══════════════════════════════════════════════ -->
  <text x="40" y="1930" fill="#475569" font-size="11" font-weight="600" letter-spacing="1.5">AGENT-TO-AGENT (A2A) CORROBORATION FLOW</text>

  <rect x="40" y="1945" width="1420" height="85" rx="12" fill="#fffbeb" stroke="#fbbf24" stroke-width="1.5" filter="url(#shadow)"/>

  <!-- A2A flow -->
  <rect x="70" y="1960" width="180" height="35" rx="6" fill="#ecfdf5" stroke="#6ee7b7" stroke-width="1.5"/>
  <text x="160" y="1982" fill="#065f46" font-size="11" font-weight="600" text-anchor="middle">SEC Agent</text>

  <line x1="250" y1="1977" x2="310" y2="1977" stroke="#f59e0b" stroke-width="2" marker-end="url(#arrow-amber)"/>
  <text x="280" y="1970" fill="#92400e" font-size="8" text-anchor="middle">calls</text>

  <rect x="320" y="1960" width="220" height="35" rx="6" fill="#fffbeb" stroke="#fbbf24" stroke-width="1.5"/>
  <text x="430" y="1982" fill="#92400e" font-size="11" font-weight="600" text-anchor="middle">corroborate_with_news</text>

  <line x1="540" y1="1977" x2="600" y2="1977" stroke="#f59e0b" stroke-width="2" marker-end="url(#arrow-amber)"/>
  <text x="570" y="1970" fill="#92400e" font-size="8" text-anchor="middle">invokes</text>

  <rect x="610" y="1960" width="180" height="35" rx="6" fill="#ecfdf5" stroke="#6ee7b7" stroke-width="1.5"/>
  <text x="700" y="1982" fill="#065f46" font-size="11" font-weight="600" text-anchor="middle">News Agent</text>

  <line x1="790" y1="1977" x2="850" y2="1977" stroke="#10b981" stroke-width="2" marker-end="url(#arrow-green)"/>
  <text x="820" y="1970" fill="#065f46" font-size="8" text-anchor="middle">returns</text>

  <rect x="860" y="1960" width="260" height="35" rx="6" fill="#f0fdf4" stroke="#86efac" stroke-width="1"/>
  <text x="990" y="1982" fill="#166534" font-size="10" font-weight="500" text-anchor="middle">news_verdict + news_confidence</text>

  <line x1="1120" y1="1977" x2="1180" y2="1977" stroke="#64748b" stroke-width="1.5" marker-end="url(#arrow)"/>

  <rect x="1190" y="1960" width="240" height="35" rx="6" fill="#f8fafc" stroke="#94a3b8" stroke-width="1"/>
  <text x="1310" y="1982" fill="#475569" font-size="10" font-weight="500" text-anchor="middle">Stored in corroboration_result</text>

  <text x="70" y="2020" fill="#92400e" font-size="9">Cross-source evidence: SEC filing disclosure → News verification → confidence enrichment → A2A provenance badge (amber)</text>

  <!-- ═══════════════════════════════════════════════ -->
  <!-- LEGEND                                          -->
  <!-- ═══════════════════════════════════════════════ -->
  <rect x="40" y="2050" width="1420" height="145" rx="12" fill="#fff" stroke="#e2e8f0" stroke-width="1" filter="url(#shadow)"/>

  <text x="65" y="2080" fill="#1e293b" font-size="12" font-weight="700">Legend</text>

  <!-- Component colors -->
  <rect x="65" y="2095" width="14" height="14" rx="3" fill="#eff6ff" stroke="#3b82f6" stroke-width="1.5"/>
  <text x="85" y="2107" fill="#374151" font-size="10">Pipeline Node</text>

  <rect x="200" y="2095" width="14" height="14" rx="3" fill="#ecfdf5" stroke="#6ee7b7" stroke-width="1.5"/>
  <text x="220" y="2107" fill="#374151" font-size="10">Domain Agent</text>

  <rect x="345" y="2095" width="14" height="14" rx="3" fill="#fef2f2" stroke="#fca5a5" stroke-width="1.5"/>
  <text x="365" y="2107" fill="#374151" font-size="10">Guard / Safety</text>

  <rect x="490" y="2095" width="14" height="14" rx="3" fill="#fffbeb" stroke="#fbbf24" stroke-width="1.5"/>
  <text x="510" y="2107" fill="#374151" font-size="10">HITL / Routing</text>

  <rect x="640" y="2095" width="14" height="14" rx="3" fill="#f0fdfa" stroke="#5eead4" stroke-width="1.5"/>
  <text x="660" y="2107" fill="#374151" font-size="10">MCP / External</text>

  <rect x="800" y="2095" width="14" height="14" rx="3" fill="#f5f3ff" stroke="#c4b5fd" stroke-width="1.5"/>
  <text x="820" y="2107" fill="#374151" font-size="10">RAG</text>

  <rect x="870" y="2095" width="14" height="14" rx="3" fill="#fdf2f8" stroke="#f9a8d4" stroke-width="1.5"/>
  <text x="890" y="2107" fill="#374151" font-size="10">Memory</text>

  <rect x="960" y="2095" width="14" height="14" rx="3" fill="#f8fafc" stroke="#94a3b8" stroke-width="1.5"/>
  <text x="980" y="2107" fill="#374151" font-size="10">Audit</text>

  <!-- Provenance Badges -->
  <text x="65" y="2142" fill="#1e293b" font-size="11" font-weight="600">Data Source Provenance Badges</text>

  <rect x="300" y="2130" width="55" height="20" rx="4" fill="#dbeafe" stroke="#3b82f6" stroke-width="1"/>
  <text x="328" y="2144" fill="#1e40af" font-size="9" font-weight="600" text-anchor="middle">XBRL</text>
  <text x="365" y="2144" fill="#6b7280" font-size="9">SEC structured filings</text>

  <rect x="530" y="2130" width="45" height="20" rx="4" fill="#ede9fe" stroke="#8b5cf6" stroke-width="1"/>
  <text x="553" y="2144" fill="#5b21b6" font-size="9" font-weight="600" text-anchor="middle">RAG</text>
  <text x="585" y="2144" fill="#6b7280" font-size="9">Filing text chunks</text>

  <rect x="720" y="2130" width="45" height="20" rx="4" fill="#fef3c7" stroke="#f59e0b" stroke-width="1"/>
  <text x="743" y="2144" fill="#92400e" font-size="9" font-weight="600" text-anchor="middle">A2A</text>
  <text x="775" y="2144" fill="#6b7280" font-size="9">Agent-to-agent corroboration</text>

  <!-- Arrow types -->
  <text x="65" y="2175" fill="#1e293b" font-size="11" font-weight="600">Flow Types</text>

  <line x1="175" y1="2171" x2="230" y2="2171" stroke="#64748b" stroke-width="1.5" marker-end="url(#arrow)"/>
  <text x="240" y="2175" fill="#6b7280" font-size="9">Data flow</text>

  <line x1="330" y1="2171" x2="385" y2="2171" stroke="#f59e0b" stroke-width="1.5" marker-end="url(#arrow-amber)"/>
  <text x="395" y="2175" fill="#6b7280" font-size="9">Conditional routing</text>

  <line x1="540" y1="2171" x2="595" y2="2171" stroke="#ef4444" stroke-width="1.5" stroke-dasharray="4" marker-end="url(#arrow-red)"/>
  <text x="605" y="2175" fill="#6b7280" font-size="9">Rejection / bypass</text>

  <line x1="750" y1="2171" x2="805" y2="2171" stroke="#94a3b8" stroke-width="1" stroke-dasharray="3"/>
  <text x="815" y="2175" fill="#6b7280" font-size="9">Detail annotation</text>

  <!-- ═══════════════════════════════════════════════ -->
  <!-- FOOTER                                          -->
  <!-- ═══════════════════════════════════════════════ -->
  <rect x="0" y="2210" width="1500" height="140" fill="url(#headerGrad)"/>
  <text x="40" y="2240" fill="#e2e8f0" font-size="13" font-weight="600">FinVet v2.0.9 — AI-Powered Financial Claim Verification</text>
  <text x="40" y="2260" fill="#94a3b8" font-size="10">Agentic AI model validation for bank MRM teams · Demo/showcase for startup</text>

  <!-- Tech Stack -->
  <text x="40" y="2290" fill="#64748b" font-size="10" font-weight="600">Stack</text>
  <text x="90" y="2290" fill="#94a3b8" font-size="10">Python · FastAPI · LangGraph · Streamlit · PostgreSQL · pgvector · DeepSeek · OpenAI · Tavily · MCP</text>

  <!-- Key files -->
  <text x="40" y="2310" fill="#64748b" font-size="10" font-weight="600">Entry Points</text>
  <text x="130" y="2310" fill="#94a3b8" font-size="10">API: src/finvet/main.py · UI: ui/app.py · Pipeline: src/finvet/graph/workflow.py · Start: ./start.sh</text>

  <text x="40" y="2335" fill="#64748b" font-size="9">Pipeline: 12 nodes · 3 agents · 13 tools · 4 Docker services · 6 external APIs · Hybrid RAG · Claim memory · Immutable audit · HITL review</text>

</svg>